<svg width="73" height="73" viewBox="0 0 73 73" fill="none" xmlns="http://www.w3.org/2000/svg">
<path d="M1.72732 20.8224C1.89963 17.0571 2.48917 14.6287 3.28647 12.5674L3.29719 12.539C4.08727 10.4414 5.32498 8.54123 6.92414 6.97065L6.94658 6.94862L6.96861 6.92618C8.54048 5.32495 10.4413 4.08845 12.5371 3.30047L12.5732 3.28666C14.6298 2.48685 17.0534 1.89948 20.8218 1.72721M1.72732 20.8224C1.54616 24.8453 1.5 26.0924 1.5 36.5232C1.5 46.9562 1.54362 48.2003 1.72721 52.2242M1.72732 20.8224V21.8371M20.8218 1.72721C24.8457 1.54362 26.0924 1.5 36.5229 1.5C46.9536 1.5 48.1996 1.54613 52.2224 1.72724M20.8218 1.72721H21.8392M1.72721 52.2242C1.89948 55.9928 2.48685 58.4163 3.28666 60.4728L3.30047 60.5093M1.72721 52.2242L1.78892 52.5492M1.72721 52.2242V51.207M1.72732 21.8371C1.74139 21.5147 1.75657 21.1787 1.77282 20.8213C1.96163 16.7016 2.66196 14.2945 3.3295 12.5873C4.19345 10.3577 5.28784 8.67522 6.95981 6.99633C8.54902 5.36606 10.481 4.10978 12.6156 3.31845C14.3154 2.6592 16.716 1.96097 20.8202 1.77285C21.1787 1.75657 21.5158 1.74135 21.8392 1.72721M1.72732 21.8371C1.57822 25.2464 1.54616 27.127 1.54616 36.5232C1.54616 45.9161 1.57822 47.7995 1.72721 51.207M1.72732 21.8371L1.72721 51.207M3.30047 60.5093C4.08845 62.6048 5.32494 64.5055 6.92617 66.0776L6.94857 66.0997L6.97056 66.1218C8.54121 67.7211 10.4415 68.959 12.539 69.7489L12.5703 69.7607C14.6288 70.5591 17.0536 71.1467 20.8218 71.3191M3.30047 60.5093L3.25324 60.2602M3.25324 60.2602L1.78892 52.5492M3.25324 60.2602C2.63131 58.6174 1.99092 56.3247 1.78892 52.5492M3.25324 60.2602C3.27505 60.3181 3.29682 60.3748 3.3186 60.4308C4.10728 62.5569 5.35692 64.4823 6.97775 66.068C8.56303 67.6887 10.4875 68.938 12.613 69.7268C14.3187 70.3911 16.7222 71.0855 20.8212 71.2734C24.9578 71.4617 26.2358 71.5 36.5229 71.5C46.8103 71.5 48.0895 71.4617 52.2261 71.2734C56.3299 71.0852 58.7305 70.387 60.4304 69.7279C62.557 68.9395 64.4827 67.6894 66.0684 66.068C67.6887 64.4827 68.938 62.5584 69.7268 60.433C70.3911 58.7272 71.0855 56.324 71.2731 52.2249C71.4613 48.0883 71.5 46.8077 71.5 36.5232C71.5 26.2384 71.4613 24.9568 71.2731 20.8202C71.0841 16.6947 70.3796 14.2904 69.7172 12.5892C68.8514 10.354 67.7535 8.66347 66.0658 6.97573C64.3814 5.2947 62.6955 4.19607 60.4584 3.32936C58.7512 2.66189 56.3454 1.96167 52.2261 1.77285C51.8676 1.75657 51.5309 1.74139 51.2078 1.72724M1.78892 52.5492C1.7832 52.4427 1.77786 52.3351 1.77285 52.2261C1.75657 51.8676 1.74135 51.5305 1.72721 51.207M51.2078 1.72724H52.2224M51.2078 1.72724L21.8392 1.72721M51.2078 1.72724C47.7999 1.57825 45.9169 1.54616 36.5229 1.54616C27.1299 1.54616 25.2466 1.57822 21.8392 1.72721M52.2224 1.72724C55.9884 1.89952 58.417 2.48899 60.4787 3.28636L60.5071 3.29719C62.6045 4.08727 64.5048 5.32498 66.0754 6.92415L66.0971 6.94637L66.1196 6.96818C67.7189 8.53887 68.9564 10.4396 69.7459 12.5377L69.7592 12.5732C70.5591 14.6298 71.1467 17.0534 71.3187 20.8218M71.3187 52.2242C71.1467 55.9924 70.5591 58.4174 69.7607 60.4757L69.7489 60.507C68.9586 62.6048 67.7211 64.5048 66.1218 66.0754L66.0993 66.0975L66.0776 66.1199C64.5055 67.7211 62.6049 68.9575 60.5089 69.7456L60.4728 69.7596C58.4163 70.5594 55.9924 71.1467 52.2242 71.3191M30.294 51.5614C32.2687 52.3793 34.3853 52.8004 36.5229 52.8004C40.84 52.8004 44.9804 51.0854 48.0331 48.0331C51.0855 44.9803 52.8005 40.84 52.8005 36.5232C52.8005 32.2061 51.0855 28.0658 48.0331 25.0132C44.9804 21.9606 40.84 20.2456 36.5229 20.2456C34.3853 20.2456 32.2687 20.6667 30.294 21.4847C28.3189 22.3027 26.5247 23.5017 25.0132 25.0132C23.5017 26.5247 22.3027 28.3191 21.4847 30.294C20.6667 32.2687 20.2456 34.3856 20.2456 36.5232C20.2456 38.6608 20.6667 40.7774 21.4847 42.7521C22.3027 44.7272 23.5017 46.5214 25.0132 48.0331C26.5247 49.5443 28.3189 50.7435 30.294 51.5614ZM24.9769 24.9769C28.0393 21.9147 32.1925 20.1943 36.5229 20.1943C40.8537 20.1943 45.0069 21.9147 48.0692 24.9769C51.1315 28.0392 52.8517 32.1924 52.8517 36.5232C52.8517 40.8536 51.1315 45.0068 48.0692 48.0692C45.0069 51.1315 40.8537 52.8516 36.5229 52.8516C32.1925 52.8516 28.0393 51.1315 24.9769 48.0692C21.9147 45.0068 20.1944 40.8536 20.1944 36.5232C20.1944 32.1924 21.9147 28.0392 24.9769 24.9769ZM62.0463 16.3926C62.0463 17.6322 61.5538 18.8209 60.6776 19.6974C59.8012 20.5739 58.6123 21.0663 57.3729 21.0663C56.1332 21.0663 54.9447 20.5739 54.0682 19.6974C53.1917 18.8209 52.6991 17.6322 52.6991 16.3926C52.6991 15.1531 53.1917 13.9644 54.0682 13.0879C54.9447 12.2115 56.1332 11.7191 57.3729 11.7191C58.6123 11.7191 59.8012 12.2115 60.6776 13.0879C61.5538 13.9644 62.0463 15.1531 62.0463 16.3926Z" stroke="white" stroke-width="3" stroke-linejoin="round"/>
</svg>
