<svg width="31" height="30" viewBox="0 0 31 30" fill="none" xmlns="http://www.w3.org/2000/svg">
<path d="M26.5 19.6272C23.5638 18.4029 21.5 15.5049 21.5 12.125C21.5 8.74717 23.5667 5.85078 26.5 4.625C25.538 4.22383 24.4824 4 23.375 4C19.9971 4 17.1007 6.06124 15.875 8.9945M8.875 26.5C6.18261 26.5 4 24.3611 4 21.7226C4 19.5358 5.625 17.5156 8.0625 17.125C8.8271 15.3271 10.6367 14 12.7472 14C15.4509 14 17.6606 16.0736 17.8125 18.6875C19.2473 19.3079 20.25 20.8306 20.25 22.4794C20.25 24.6999 18.4311 26.5 16.1875 26.5H8.875Z" stroke="white" stroke-width="2.5" stroke-linecap="round" stroke-linejoin="round"/>
</svg>
