<svg width="73" height="73" viewBox="0 0 73 73" fill="none" xmlns="http://www.w3.org/2000/svg">
<path fill-rule="evenodd" clip-rule="evenodd" d="M71.5 36.5C71.5 55.8298 55.8298 71.5 36.5 71.5C17.1701 71.5 1.5 55.8298 1.5 36.5C1.5 17.17 17.1701 1.5 36.5 1.5C55.8298 1.5 71.5 17.17 71.5 36.5ZM37.7541 27.3385C34.35 28.7545 27.5462 31.685 17.343 36.1304C15.6862 36.7894 14.8182 37.4342 14.7392 38.0642C14.6057 39.1296 15.9396 39.5488 17.756 40.12C18.003 40.1977 18.259 40.2782 18.5214 40.3633C20.3085 40.9443 22.7124 41.624 23.962 41.6509C25.0956 41.6754 26.3608 41.2082 27.7577 40.2489C37.2907 33.8138 42.212 30.5612 42.5207 30.4909C42.7388 30.4415 43.0408 30.3792 43.2456 30.5612C43.4503 30.7432 43.43 31.0876 43.4083 31.18C43.2764 31.7435 38.0404 36.6113 35.3307 39.1303C34.4861 39.9157 33.8869 40.4725 33.7644 40.5999C33.49 40.8848 33.2104 41.1543 32.9416 41.4133C31.2815 43.0139 30.0362 44.214 33.0105 46.174C34.4396 47.1158 35.5834 47.8946 36.7244 48.6716C37.9704 49.5204 39.2132 50.3666 40.8215 51.4208C41.231 51.6893 41.6223 51.9683 42.0034 52.2399C43.4535 53.2738 44.7562 54.2026 46.3658 54.0542C47.301 53.9685 48.267 53.089 48.7577 50.4661C49.9173 44.2676 52.1965 30.837 52.7232 25.3028C52.7694 24.818 52.7113 24.1974 52.6644 23.925C52.6179 23.6526 52.5206 23.2645 52.1664 22.9772C51.7471 22.6369 51.0996 22.5651 50.8101 22.57C49.4938 22.5935 47.4739 23.2957 37.7541 27.3385Z" stroke="white" stroke-width="3" stroke-linejoin="round"/>
</svg>
