<svg width="70" height="70" viewBox="0 0 70 70" fill="none" xmlns="http://www.w3.org/2000/svg">
<path d="M6.33335 6.33333L5.14918 5.16033L5.16321 5.1465L6.33335 6.33333ZM6.33335 63.6667L5.16034 64.8507L5.14651 64.8367L6.33335 63.6667ZM63.6667 63.6667L64.851 64.8397L64.837 64.8537L63.6667 63.6667ZM63.6667 6.33333L64.8397 5.14917L64.8537 5.1632L63.6667 6.33333ZM12.9111 21.9556L11.2448 21.9897C11.2356 21.5419 11.4071 21.1092 11.7206 20.7892C12.0341 20.4692 12.4632 20.2889 12.9111 20.2889V21.9556ZM38.0223 49.689H39.6889C39.6889 50.6093 38.9426 51.3557 38.0223 51.3557V49.689ZM38.0223 39.7777H36.3556C36.3556 39.307 36.5546 38.8583 36.9036 38.5423C37.2526 38.2263 37.7189 38.0727 38.1876 38.1193L38.0223 39.7777ZM49.5113 49.689V51.3557C48.7866 51.3557 48.1453 50.8877 47.9243 50.1977L49.5113 49.689ZM57.4 49.689L59.009 49.254C59.1443 49.7547 59.039 50.29 58.7236 50.702C58.408 51.114 57.919 51.3557 57.4 51.3557V49.689ZM46 35.7777L45.2573 37.27C44.7143 36.9993 44.3606 36.455 44.3349 35.8487C44.3089 35.2423 44.6149 34.67 45.1333 34.3543L46 35.7777ZM55.7333 21.9333V20.2667C56.234 20.2667 56.708 20.4917 57.0246 20.8795C57.3413 21.2673 57.4666 21.7769 57.3663 22.2673L55.7333 21.9333ZM48.578 21.9333L46.974 21.4806C47.1766 20.7625 47.8316 20.2667 48.578 20.2667V21.9333ZM38.0223 32.911L38.1989 34.5683C37.7289 34.6187 37.2596 34.4667 36.9079 34.1507C36.5563 33.8343 36.3556 33.384 36.3556 32.911H38.0223ZM38.0223 21.9556V20.2889C38.9426 20.2889 39.6889 21.0351 39.6889 21.9556H38.0223ZM30.8446 21.9556H29.1779C29.1779 21.0351 29.9239 20.2889 30.8446 20.2889V21.9556ZM30.8446 41.1557H32.5113C32.5113 41.6687 32.2746 42.1533 31.8703 42.4693C31.4656 42.785 30.9383 42.897 30.4403 42.7723L30.8446 41.1557ZM20.5556 21.9556V20.2889C21.4636 20.2889 22.2045 21.0157 22.2219 21.9235L20.5556 21.9556ZM4.63086e-07 33.6667C4.63086e-07 26.1691 -0.00349959 20.3818 0.598068 15.8872C1.20604 11.3447 2.4589 7.87623 5.14918 5.16033L7.51741 7.50623C5.54104 9.50143 4.46064 12.1553 3.90194 16.3294C3.33684 20.5515 3.33334 26.0753 3.33334 33.6667H4.63086e-07ZM4.63086e-07 36.3333V33.6667H3.33334V36.3333H4.63086e-07ZM5.14651 64.8367C2.45884 62.1107 1.20607 58.639 0.598068 54.096C-0.00349959 49.6017 4.63086e-07 43.82 4.63086e-07 36.3333H3.33334C3.33334 43.9133 3.33684 49.4317 3.90194 53.654C4.46058 57.8277 5.54118 60.4893 7.52018 62.4967L5.14651 64.8367ZM33.6666 70C26.1691 70 20.3819 70.0037 15.8873 69.402C11.3447 68.794 7.87625 67.541 5.16034 64.8507L7.50625 62.4827C9.50145 64.459 12.1553 65.5393 16.3295 66.098C20.5515 66.663 26.0754 66.6667 33.6666 66.6667V70ZM36.3333 70H33.6666V66.6667H36.3333V70ZM64.837 64.8537C62.111 67.5413 58.639 68.794 54.0963 69.402C49.6016 70.0037 43.82 70 36.3333 70V66.6667C43.9136 66.6667 49.432 66.663 53.654 66.098C57.828 65.5393 60.4893 64.4587 62.4967 62.4797L64.837 64.8537ZM70 36.3333C70 43.831 70.0037 49.6183 69.402 54.1127C68.794 58.6553 67.5413 62.1237 64.851 64.8397L62.4827 62.4937C64.459 60.4987 65.5397 57.8447 66.0983 53.6707C66.6633 49.4483 66.6667 43.9247 66.6667 36.3333H70ZM70 33.6667V36.3333H66.6667V33.6667H70ZM64.8537 5.1632C67.5413 7.88927 68.794 11.3611 69.402 15.9039C70.0037 20.3985 70 26.1801 70 33.6667H66.6667C66.6667 26.0865 66.6633 20.5682 66.0983 16.3461C65.5397 12.1722 64.459 9.51073 62.48 7.50347L64.8537 5.1632ZM36.3333 4.63085e-07C43.8309 4.63085e-07 49.6183 -0.00349959 54.113 0.598067C58.6553 1.20603 62.1236 2.45887 64.8397 5.14917L62.494 7.5174C60.4986 5.54103 57.845 4.46063 53.6706 3.90193C49.4486 3.33683 43.9246 3.33333 36.3333 3.33333V4.63085e-07ZM33.6666 4.63085e-07H36.3333V3.33333H33.6666V4.63085e-07ZM5.16321 5.1465C7.88928 2.45883 11.3612 1.2061 15.9039 0.598067C20.3985 -0.00349959 26.1802 4.63085e-07 33.6666 4.63085e-07V3.33333C26.0866 3.33333 20.5682 3.33683 16.3461 3.90193C12.1722 4.46057 9.51075 5.54117 7.50348 7.52017L5.16321 5.1465ZM37.1333 51.3557C29.1259 51.3557 22.6684 48.5993 18.1935 43.4107C13.7517 38.2607 11.4277 30.9063 11.2448 21.9897L14.5775 21.9214C14.7501 30.338 16.9372 36.8503 20.7177 41.2337C24.4649 45.5783 29.9409 48.0223 37.1333 48.0223V51.3557ZM37.1556 51.3557H37.1333V48.0223H37.1556V51.3557ZM38.0223 51.3557H37.1556V48.0223H38.0223V51.3557ZM39.6889 39.7777V49.689H36.3556V39.7777H39.6889ZM47.9243 50.1977C46.3976 45.4373 42.6519 41.9137 37.8569 41.4363L38.1876 38.1193C44.5479 38.753 49.247 43.407 51.0983 49.18L47.9243 50.1977ZM57.4 51.3557H49.5113V48.0223H57.4V51.3557ZM54.4806 40.4547C56.595 43.0347 58.1383 46.0337 59.009 49.254L55.7913 50.124C55.0436 47.3587 53.7183 44.783 51.9023 42.5677L54.4806 40.4547ZM46.7426 34.2857C49.729 35.772 52.3663 37.8747 54.4806 40.4547L51.9023 42.5677C50.0866 40.352 47.822 38.5463 45.2573 37.27L46.7426 34.2857ZM53.6733 30.8287C51.8666 33.3983 49.5496 35.5677 46.867 37.2013L45.1333 34.3543C47.4246 32.959 49.4033 31.106 50.9463 28.9117L53.6733 30.8287ZM57.3663 22.2673C56.737 25.3446 55.4796 28.2591 53.6733 30.8287L50.9463 28.9117C52.4893 26.7169 53.563 24.2277 54.1006 21.5994L57.3663 22.2673ZM48.578 20.2667H55.7333V23.6H48.578V20.2667ZM37.8456 31.254C39.5006 31.0773 41.4089 29.9987 43.1499 28.166C44.8689 26.3564 46.2726 23.9646 46.974 21.4806L50.182 22.3861C49.3273 25.4131 47.6423 28.2769 45.567 30.4617C43.5133 32.6233 40.9219 34.278 38.1989 34.5683L37.8456 31.254ZM39.6889 21.9556V32.911H36.3556V21.9556H39.6889ZM30.8446 20.2889H38.0223V23.6222H30.8446V20.2889ZM29.1779 41.1557V21.9556H32.5113V41.1557H29.1779ZM22.2219 21.9235C22.4575 34.1753 27.7848 38.6727 31.2486 39.5387L30.4403 42.7723C25.0153 41.4163 19.1425 35.158 18.8892 21.9876L22.2219 21.9235ZM12.9111 20.2889H20.5556V23.6222H12.9111V20.2889Z" fill="white"/>
</svg>
